<?xml version="1.0" encoding="UTF-8"?><!-- Generator: Adobe Illustrator 16.0.0, SVG Export Plug-In . SVG Version: 6.00 Build 0)  --><svg xmlns="http://www.w3.org/2000/svg" enable-background="new 0 0 474.336 475.689" height="475.69px" id="Layer_3" version="1.1" viewBox="0 0 474.336 475.689" width="474.34px" x="0px" xml:space="preserve" y="0px">
<g>
	<circle cx="238.09" cy="235.14" fill="#2AB9E4" r="232.17"/>
</g>
<g fill="#F873B0">
	<path d="m190.68 7.821s128.29 28.916 141.68 66.063c10.531-16.084 4.872-48.741 4.872-48.741s-58.32-35.174-146.55-17.322z" fill="inherit"/>
	<path d="m332.35 73.884s39.998 127.45-107.34 393.42c152.96 5.171 216.09-112.34 225.91-139.27 12.89-147.43-92.03-248.52-118.57-254.15z" fill="inherit"/>
</g>
<g fill="#FDC74F">
	<path d="m26.08 329.88s89.619-192.24 306.27-256c32.395 156.92-107.34 393.42-107.34 393.42s-137.56 0-198.93-137.42z" fill="inherit"/>
	<path d="m332.35 73.884s48.22-8.347 91.884 22.481c-39.307-52.699-87.012-71.222-87.012-71.222s2.66 30.604-4.87 48.741z" fill="inherit"/>
</g>
<g>
		<ellipse cx="332.35" cy="73.884" fill="#EAEAEA" rx="46.578" ry="24.714" transform="matrix(.8426 .5386 -.5386 .8426 92.124 -167.38)"/>
</g>
<circle cx="248.07" cy="225.16" fill="#fff" id="x" opacity=".15" r="218.38"/>
</svg>