<?xml version="1.0" encoding="UTF-8"?><svg xmlns="http://www.w3.org/2000/svg" xmlns:xlink="http://www.w3.org/1999/xlink" height="476.8" preserveAspectRatio="xMidYMid meet" version="1.0" viewBox="0.0 0.0 473.9 476.8" width="473.9" zoomAndPan="magnify"><defs><clipPath id="a"><path d="M 0 0 L 473.910156 0 L 473.910156 476.839844 L 0 476.839844 Z M 0 0"/></clipPath></defs><g><g clip-path="url(#a)" id="change1_1"><path d="M 473.894531 166.65625 C 474.210938 177.160156 470.847656 188.285156 466.21875 198.679688 C 455.4375 222.910156 436.859375 244.6875 415.046875 261.390625 C 404.289062 269.628906 393.023438 276.457031 381.4375 282.027344 C 399.335938 290.828125 416.117188 301.765625 431.085938 314.734375 C 449.347656 330.558594 467.214844 350.589844 470.960938 372.34375 C 472.355469 380.429688 472.464844 392.023438 465.4375 397.046875 C 459.503906 401.285156 450.695312 398.484375 443.609375 395.394531 C 438.734375 393.265625 430.929688 388.382812 425.703125 389.738281 C 416.851562 392.042969 428.488281 399.027344 432.492188 401.632812 C 438.101562 405.285156 445.515625 409.261719 447.226562 415.554688 C 449.410156 423.601562 440.632812 428.890625 434.089844 431.757812 C 424.460938 435.980469 412.886719 437.019531 401.515625 436.613281 C 375.011719 435.675781 347.867188 426.582031 324.222656 412.597656 C 296.210938 396.03125 274.609375 373.707031 258.648438 348.800781 C 250.238281 376.792969 235.835938 403.867188 213.863281 427.308594 C 195.070312 447.347656 171.554688 463.671875 146.371094 471.988281 C 135.566406 475.558594 124.164062 477.796875 113.742188 476.4375 C 106.65625 475.515625 96.746094 472.894531 96.59375 464.554688 C 96.476562 458.035156 102.480469 452.144531 106.847656 447.070312 C 109.960938 443.449219 119.179688 433.484375 110.039062 433.753906 C 104.640625 433.910156 98.511719 440.78125 94.425781 444.1875 C 88.492188 449.136719 80.816406 454.292969 73.933594 451.882812 C 65.78125 449.027344 62.644531 437.859375 61.71875 429.710938 C 59.230469 407.777344 70.78125 383.546875 83.886719 363.246094 C 94.628906 346.609375 107.679688 331.414062 122.402344 317.957031 C 109.722656 315.851562 96.992188 312.445312 84.363281 307.546875 C 58.75 297.609375 34.816406 281.902344 17.6875 261.65625 C 10.339844 252.96875 3.996094 243.230469 1.363281 233.054688 C -0.429688 226.140625 -1.703125 215.96875 5.972656 212.710938 C 11.972656 210.160156 19.683594 213.527344 26.023438 215.679688 C 30.542969 217.214844 43.234375 222.039062 39.570312 213.660156 C 37.402344 208.710938 28.738281 205.601562 24.050781 203.082031 C 17.242188 199.425781 9.59375 194.238281 9.253906 186.953125 C 8.855469 178.324219 18.035156 171.238281 25.253906 167.335938 C 44.664062 156.828125 71.457031 158.480469 95.183594 163.046875 C 124.890625 168.765625 153.496094 180.699219 179.144531 197.246094 C 180.21875 197.941406 181.253906 198.679688 182.320312 199.386719 C 169.769531 176.390625 161.203125 150.410156 158.808594 121.898438 C 156.507812 94.523438 160.132812 66.128906 170.820312 41.855469 C 175.402344 31.441406 181.375 21.472656 189.363281 14.644531 C 194.796875 10 203.378906 4.394531 209.671875 9.863281 C 214.59375 14.140625 214.949219 22.546875 215.792969 29.1875 C 216.394531 33.925781 217.625 47.445312 223.546875 40.476562 C 227.046875 36.359375 226.046875 27.210938 226.25 21.894531 C 226.550781 14.171875 227.859375 5.019531 234.261719 1.519531 C 241.839844 -2.621094 252.234375 2.527344 258.90625 7.296875 C 276.859375 20.136719 287.121094 44.941406 293.421875 68.269531 C 301.308594 97.472656 303.128906 128.417969 299.496094 158.722656 C 298.714844 165.285156 297.691406 171.796875 296.519531 178.261719 C 315.839844 156.839844 338.785156 138.734375 364.234375 125.6875 C 385.734375 114.664062 410.996094 105.585938 432.570312 110.242188 C 440.589844 111.972656 451.390625 116.207031 453.417969 124.601562 C 455.132812 131.691406 449.238281 138.8125 443.722656 144.226562 C 439.929688 147.953125 432.480469 153.367188 431.785156 158.722656 C 430.613281 167.789062 441.445312 159.613281 445.355469 156.871094 C 450.839844 153.03125 457.300781 147.644531 463.773438 148.410156 C 472.054688 149.390625 473.679688 159.515625 473.894531 166.65625" fill="#f8a3c1"/></g><g id="change2_1"><path d="M 397.339844 202.246094 C 397.546875 209.160156 395.332031 216.484375 392.289062 223.324219 C 385.191406 239.273438 372.964844 253.605469 358.605469 264.601562 C 351.527344 270.023438 344.113281 274.519531 336.488281 278.183594 C 348.265625 283.976562 359.3125 291.175781 369.164062 299.710938 C 381.183594 310.125 392.941406 323.3125 395.410156 337.628906 C 396.324219 342.949219 396.398438 350.582031 391.773438 353.886719 C 387.867188 356.679688 382.070312 354.832031 377.40625 352.796875 C 374.195312 351.398438 369.0625 348.183594 365.621094 349.078125 C 359.796875 350.59375 367.453125 355.191406 370.089844 356.90625 C 373.78125 359.308594 378.660156 361.925781 379.785156 366.066406 C 381.226562 371.363281 375.445312 374.847656 371.140625 376.734375 C 364.804688 379.511719 357.1875 380.195312 349.699219 379.929688 C 332.257812 379.3125 314.390625 373.328125 298.828125 364.121094 C 280.390625 353.21875 266.175781 338.523438 255.667969 322.132812 C 250.132812 340.554688 240.652344 358.378906 226.191406 373.804688 C 213.824219 386.992188 198.34375 397.738281 181.769531 403.210938 C 174.660156 405.5625 167.152344 407.035156 160.292969 406.140625 C 155.632812 405.53125 149.109375 403.808594 149.007812 398.320312 C 148.929688 394.027344 152.882812 390.152344 155.753906 386.8125 C 157.804688 384.429688 163.871094 377.867188 157.855469 378.046875 C 154.304688 378.148438 150.269531 382.671875 147.578125 384.914062 C 143.671875 388.171875 138.621094 391.566406 134.09375 389.980469 C 128.726562 388.101562 126.660156 380.75 126.054688 375.386719 C 124.414062 360.949219 132.015625 345.003906 140.644531 331.640625 C 147.714844 320.691406 156.304688 310.6875 165.992188 301.832031 C 157.648438 300.445312 149.269531 298.203125 140.957031 294.980469 C 124.097656 288.441406 108.347656 278.101562 97.074219 264.773438 C 92.234375 259.058594 88.0625 252.648438 86.328125 245.949219 C 85.148438 241.398438 84.308594 234.703125 89.363281 232.558594 C 93.3125 230.882812 98.386719 233.097656 102.558594 234.515625 C 105.535156 235.523438 113.886719 238.699219 111.472656 233.1875 C 110.050781 229.929688 104.347656 227.878906 101.261719 226.222656 C 96.78125 223.816406 91.742188 220.402344 91.523438 215.605469 C 91.257812 209.929688 97.300781 205.265625 102.050781 202.695312 C 114.828125 195.777344 132.460938 196.867188 148.078125 199.871094 C 167.628906 203.636719 186.460938 211.488281 203.339844 222.382812 C 204.046875 222.839844 204.730469 223.324219 205.429688 223.792969 C 197.171875 208.65625 191.53125 191.554688 189.953125 172.789062 C 188.441406 154.773438 190.828125 136.082031 197.859375 120.105469 C 200.878906 113.253906 204.808594 106.691406 210.066406 102.195312 C 213.640625 99.140625 219.289062 95.449219 223.433594 99.050781 C 226.671875 101.867188 226.90625 107.398438 227.460938 111.769531 C 227.859375 114.886719 228.667969 123.785156 232.566406 119.199219 C 234.867188 116.488281 234.210938 110.46875 234.34375 106.96875 C 234.542969 101.886719 235.402344 95.859375 239.617188 93.558594 C 244.605469 90.832031 251.445312 94.21875 255.839844 97.359375 C 267.65625 105.8125 274.410156 122.136719 278.554688 137.488281 C 283.746094 156.714844 284.941406 177.078125 282.554688 197.027344 C 282.039062 201.347656 281.367188 205.628906 280.59375 209.886719 C 293.3125 195.785156 308.414062 183.871094 325.164062 175.285156 C 339.316406 168.027344 355.941406 162.050781 370.140625 165.117188 C 375.421875 166.257812 382.527344 169.042969 383.863281 174.566406 C 384.992188 179.234375 381.113281 183.921875 377.480469 187.484375 C 374.984375 189.9375 370.082031 193.5 369.625 197.027344 C 368.851562 202.996094 375.980469 197.609375 378.554688 195.808594 C 382.164062 193.28125 386.417969 189.734375 390.679688 190.238281 C 396.128906 190.886719 397.195312 197.546875 397.339844 202.246094" fill="#f6dde3"/></g><g id="change3_1"><path d="M 279.339844 230.972656 C 273.789062 229.648438 268.21875 233.070312 266.890625 238.621094 C 265.808594 243.171875 267.914062 247.730469 271.765625 249.960938 C 268.621094 261.105469 262.8125 271.222656 254.578125 279.902344 C 252.105469 282.507812 256.132812 286.34375 258.59375 283.746094 C 267.515625 274.339844 273.710938 263.386719 277.082031 251.339844 C 281.699219 251.28125 285.871094 248.117188 286.992188 243.417969 C 288.316406 237.867188 284.890625 232.296875 279.339844 230.972656 Z M 236.519531 273.6875 C 227.695312 275.847656 218.839844 275.867188 210.308594 273.738281 C 210.289062 270.363281 208.078125 267.253906 204.671875 266.257812 C 200.515625 265.039062 196.15625 267.421875 194.9375 271.578125 C 193.722656 275.734375 196.105469 280.09375 200.261719 281.3125 C 203.78125 282.34375 207.4375 280.785156 209.21875 277.761719 C 218.425781 280.078125 227.980469 280.121094 237.539062 277.785156 C 240.175781 277.140625 239.164062 273.039062 236.519531 273.6875 Z M 230.449219 235.109375 C 234.5625 233.230469 237.140625 228.820312 236.480469 224.109375 C 235.679688 218.367188 230.371094 214.359375 224.628906 215.160156 C 218.882812 215.964844 214.875 221.273438 215.679688 227.015625 C 216.355469 231.882812 220.269531 235.484375 224.9375 235.992188 C 227.183594 248.511719 232.390625 260.195312 240.507812 270.578125 C 242.746094 273.441406 247.191406 269.949219 244.945312 267.078125 C 237.453125 257.492188 232.550781 246.695312 230.449219 235.109375 Z M 252.71875 255.542969 C 253.890625 258.996094 248.539062 260.824219 247.371094 257.378906 C 243.140625 244.898438 242.085938 232.148438 244.101562 219.597656 C 239.863281 217.574219 237.359375 212.878906 238.328125 208.0625 C 239.46875 202.375 245.003906 198.691406 250.6875 199.828125 C 256.378906 200.96875 260.0625 206.503906 258.921875 212.191406 C 257.988281 216.855469 254.101562 220.164062 249.597656 220.582031 C 247.753906 232.210938 248.8125 244.023438 252.71875 255.542969" fill="#a17445"/></g></g></svg>