<?xml version="1.0" encoding="UTF-8"?><svg xmlns="http://www.w3.org/2000/svg" xmlns:xlink="http://www.w3.org/1999/xlink" height="348.6" preserveAspectRatio="xMidYMid meet" version="1.0" viewBox="2.5 -0.4 327.9 348.6" width="327.9" zoomAndPan="magnify"><g id="change1_1"><path d="M152.5,201.4c1.9,27.3,2.4,54.8-1,81.9c-1.6,12.2-3.9,24.7-1,36.6c1.8,7.3,5.5,14,8.2,21 c0.9,2.4,1.7,4.8,2.2,7.3c0.1,0,0.2,0,0.2,0c2.8-0.7,5.6-1.3,8.5-1.6c-0.7-2.9-1.5-5.7-2.9-8.3c-3.6-7.2-10.4-12.9-12.1-20.7 c-2.3-9.9,4-19.7,5.1-29.8c1.1-10.5-3.4-20.7-3.7-31.3c-0.2-8.9,2.8-17.6,3.7-26.5c1.4-12.6-1.3-25.3-3.9-37.7 c-0.7-3.2-1.4-6.5-3.6-8.9c-4.7-5.3-13.3-3.6-20.1-1.5c-0.7,4.5-2.3,8.8-4.6,12.7c-1.5,2.6,0.1,7.2,2.3,9.2c0.4-4.6,1.2-9.3,3.9-13 c2.7-3.7,7.9-5.9,12.1-4C151,189.2,152.1,195.8,152.5,201.4z" fill="#F1BD1F"/></g><g id="change1_2"><path d="M256.7,135.3c-2.1-3.8-6.5-6.3-10.9-6.2c-1.5,0.1-3,0.4-4.1,1.4c-1,1-1.5,2.4-1.9,3.8 c-4.2,16.4,1.2,34.4-4.8,50.2c-1.2,3.3-2.9,6.3-4.1,9.6c-3.9,10.7-2.4,22.5-1.4,33.9c1.1,11.4,1.5,23.5-4.2,33.4 c-1.8,3.1-4.1,5.8-5.5,9.1c-1.5,3.3-2,7-2.5,10.6c-1.2,8.8-2.4,17.5-3.6,26.3c-0.6,4.1-1.1,8.2-2.5,12.1c-2,5.6-5.5,10.5-7.4,16.1 c-1.1,3.3-1.6,6.6-1.8,10.1c0.2,0,0.3,0,0.5,0c3-0.1,6.1-0.2,9.1-0.2c0.2-7.7,0.9-15.4,2.5-22.9c1.1-5.1,2.6-10.1,3.9-15.1 c1.6-6.4,2.8-12.8,3.7-19.3c0.6-5,1-10,2.5-14.8c1.2-3.7,3-7.2,4.4-10.8c5.8-14.8,5.1-31.2,4.2-47.1c-0.3-5.2-0.6-10.5,0.6-15.5 c1.6-6.3,5.6-12,6.5-18.5c0.5-3.4,0.1-6.9,0-10.3c-0.3-10,2.2-19.8,4.7-29.5c0.6-2.2,1.3-4.6,3.3-5.6c2-1,5.1,1.1,4,3L256.7,135.3z" fill="#F1BD1F"/></g><g id="change1_3"><path d="M189,201c-3.1-7.6-6.3-15.5-12.1-21.4c-1.6-1.7-3.4-3.2-4.7-5.2c-1.8-2.8-2.1-6.3-2.6-9.6 c-2.7-18.9-9.5-36.9-16.3-54.7c-3.5-9.2-7.1-18.6-13.9-25.7c-3.7-3.9-8.3-7-11.5-11.3c-5-6.8-6-15.7-9.8-23.3s-13.2-14-20.4-9.5 c-4.4,2.7-6.4,8.7-11.2,10.6c-2.5-2-2.4-6.2-1-9.1c1.4-2.9,3.9-5.1,6.4-7.2c3.3-2.7,7.1-5.6,11.4-5.5c4.1,0.2,7.4,3,10.3,5.9 c10.1,10.2,18.1,22.5,23.2,36c1.2,3.2,2.4,6.6,5.1,8.6c1.8,1.4,4,2,5.9,3.2c4.3,2.6,6.5,7.4,8.6,12c7.1,16.1,14.3,32.4,17,49.8 c0.7,4.4,1,8.8,2.3,13c2,6.9,6.2,12.9,9.6,19.3c3.8,7.3,6.6,15.1,8.2,23.1C191.2,201.6,189.4,198.4,189,201z" fill="#F1BD1F"/></g><g id="change1_4"><path d="M186,345.8c2.2,0,4.4,0,6.6,0c-0.6-7.6-0.9-15.2-1.2-22.8c-0.4-12.5-0.3-25.1-0.4-37.6 c-0.1-4.3-0.2-8.6,0-13c-1.1-8.1-1.8-16.2-1.2-24.6c0.5-7.8,1.1-15.7,2.6-23.4c1.7-8.9,4.6-17.8,4.2-26.9 c-0.3-6.4-2.2-12.7-3.8-18.9c-5.9-23.3-6.9-47.6-3-71.3c1-5.9,2.3-11.9,5.3-17.3c1.9-3.3,4.3-6.4,6-9.8c4.8-9.9,2.2-21.2,3.8-31.8 c0.2-1.3,0.5-2.6,1.5-3.6c1-1,2.6-1.4,4.1-1.7c7.3-1.5,11.5-4.5,15.6-10c-7.8,4.2-19.7,1.3-25.4,7.6c-2.4,2.7-2.8,6.3-3.1,9.7 c-0.6,6.6-1.1,13.2-1.7,19.8c-0.4,4.7-0.8,9.5-2.6,13.9c-1.4,3.5-3.5,6.7-5.2,10.1c-11.7,23.6-0.2,50.3,1.4,75.9 c0.5,7.8,0,15.6-0.5,23.3c-1,16.6-2,33.2-3,49.9c-0.6,9.4-1.1,18.8-2.5,28.1c-0.6,4.5-1.5,8.9-1.8,13.4c-0.5,6.5,0.1,13,0.7,19.4 L186,345.8z" fill="#F1BD1F"/></g><path d="M270.5,127.7c0.1-0.1,0.2-0.2,0.3-0.3" fill="none"/><g><g id="change2_3"><path d="M237.9,133.9c-9.3,0-18.5-0.1-27.8-0.1c-2.9,0-6,0-8.4,1.6c-2.2,1.4-3.5,3.7-4.7,5.9 c-2.6,4.7-5.2,9.4-7.9,14.2c-1.4,2.5-2.8,5.1-3,7.9c-0.3,3.5,1.2,6.9,2.7,10.1c5,10.5,9.9,21.1,14.9,31.6c1.6,3.5,3.3,7,6,9.7 c2.3,2.3,5.3,3.8,8.2,5.3c13.2,6.5,27,12,39,20.4c6.4,4.5,12.2,9.7,18.4,14.5c7.5,5.9,15.5,11.1,24,15.6c0.6,0.3,1.3,0.7,2,0.4 c0.6-0.2,1-0.8,1.3-1.4c6.9-13.6,13.3-27.5,19.1-41.6c3.4-8.2,6.6-16.5,7.8-25.2c0.9-6.8,0.6-13.8,0.1-20.7 c-1.1-16.1-3.3-32.8-12.4-46.1c-5.9-8.7-14.4-15.3-22.7-21.7c-2-1.5-4.1-3.1-6.6-3.3c-1.8-0.1-3.5,0.5-5.1,1.1 c-7.1,2.5-14.4,5.1-20.1,10c-3.8,3.2-6.6,12.9-9.9,14.8C249.2,138.8,242.4,133.9,237.9,133.9z" fill="#F2D9AB"/></g><g id="change3_42"><path d="M245.3 154.8L239.2 146 202.9 142.7 236.2 151.4z" fill="#0D8B60"/></g><g id="change3_43"><path d="M240.6 166.9L221.5 154.6 202.9 148.5 194 157.4 196.4 166.3 213.1 162.4z" fill="#0D8B60"/></g><g id="change3_44"><path d="M240.4,177.7l-20.8-6.1c0,0-21.3,1.8-20.9,2.7c0.4,0.8,7.8,10.1,7.8,10.1l28.8-4.7l15,5.2L240.4,177.7z" fill="#0D8B60"/></g><g id="change3_45"><path d="M250.3,193.3l-33.3-3.4l-9.6,2.8c4.1,7.1,6.9,12.6,6.9,12.6s7.9,0.1,10-1.1c2.1-1.2,16.4-7.3,15.9-7.3 C239.8,196.9,250.3,193.3,250.3,193.3z" fill="#0D8B60"/></g><g id="change3_46"><path d="M265.7,190.5l-25.6,15.2l-6.8,7.8c0,0,4.1,7.1,4.1,5.9c0-1.3,2.6-7.5,2.6-7.5 C248.5,205.3,265.7,190.5,265.7,190.5z" fill="#0D8B60"/></g><g id="change3_47"><path d="M270.2,200.2l-20.1,10.2l-3,9.3c2.9,5.7,6.1,11.6,6.1,11.6l5.4-17.5l7-6.2L270.2,200.2z" fill="#0D8B60"/></g><g id="change3_48"><path d="M272.5,215.8l-11.9,15.5c-0.5,4.2,9.1,8.5,9.1,8.5s-0.7-11.1,0.1-12c0.8-0.9,6.8-9.6,6.8-9.6l0.1-7.9 L272.5,215.8z" fill="#0D8B60"/></g><g id="change3_49"><path d="M281.2,225.1l-0.9,2.3l-6.4,15.7c3.3,4.2,7,5.9,7,5.9l0.1-12l3.1-17L281.2,225.1z" fill="#0D8B60"/></g><g id="change3_50"><path d="M291.1,234.7l-7.2,10.7l-1.8,10C289.1,256.7,291.1,234.7,291.1,234.7z" fill="#0D8B60"/></g><g id="change3_51"><path d="M295.9 245.2L290.8 258 293.2 260.9z" fill="#0D8B60"/></g><path d="M263.1,148.3c0.7-1,1.5-2.1,2.2-3.1" fill="none"/><g id="change3_52"><path d="M267.9,141.4c0,0,3.6-17.2,4.6-17.1c0.9,0,12.9-5.8,12.9-5.8s6.2-1.7,7.1-1.2c5.1,2.9,5.1,2.9,5.1,2.9 l-12.3,5.5l-10,2.1L267.9,141.4z" fill="#0D8B60"/></g><g id="change3_53"><path d="M266.2 151.8L268.2 149.3 280.2 134.7 292.3 129.5 302.5 125 311.8 134.2 299.8 138.5z" fill="#0D8B60"/></g><g id="change3_54"><path d="M277.4,158.3c1.9-2.4,9.3-13.2,10.4-12.9s17.3-2.6,18.6-3.5c1.3-0.9,8.4,0.1,8.4,0.1s-11.3,4.9-12.9,5.2 c-1.6,0.3-11.6,2.7-11.6,2.7s-0.6,6.2-2.7,6.8S277.4,158.3,277.4,158.3z" fill="#0D8B60"/></g><g id="change3_55"><path d="M279.8 167.3L282.3 166.3 311.5 154.2 323.1 155.8 305.4 165.7 294.4 164.9z" fill="#0D8B60"/></g><g id="change3_56"><path d="M282.2,174.2c0.9-0.6,13.2-3,14.7-3.3s11-0.8,12.2-0.8s13.8-2.2,13.8-2.2l3.4,6.8c0,0-19.7-0.5-20.6-0.2 c-0.9,0.3-13.1,5.5-13.9,4.5C290.9,178,282.2,174.2,282.2,174.2z" fill="#0D8B60"/></g><g id="change3_57"><path d="M279.6,182.9l18.4,2.6l21.9,0.3l10.1,3.3c0,0-4.9,8.7-4,8.9c0.9,0.2-8.7-1.8-8.7-1.8l-20.6-5.8 c0,0-8-2-9.5-3C285.8,186.4,279.6,182.9,279.6,182.9z" fill="#0D8B60"/></g><g id="change3_58"><path d="M288.4,194.2c0.2,0,0.7,0.1,1.5,0.2c6.4,1.2,31.1,6.3,31.1,6.3l-1.7,7.6c-4.7,2.1-6.2-1.4-8.4-2.7 c-2.2-1.2-12.5-5.2-12.5-5.2L288.4,194.2z" fill="#0D8B60"/></g><g id="change3_59"><path d="M284.4,201.4c0.9,0.3,14,4.9,14,4.9s9.3,3.8,9.3,5.6s6.2,5.4,6.2,5.4c3.4,1.6-0.1,8.1-0.1,8.1 s-4.7-2.4-6.8-5.1c-2.2-2.8-10.5-11.6-10.5-11.6L284.4,201.4z" fill="#0D8B60"/></g><g id="change3_60"><path d="M288.2,208.7c1.4,0.6,17.5,14.8,17.5,14.8l6.2,8.4c0,0-2.9,4.8-3.8,5.4 C307.1,237.9,288.2,208.7,288.2,208.7z" fill="#0D8B60"/></g><g id="change3_61"><path d="M293.7,225.3c1.3,0.6,9.5,10.5,10.5,12s0.9,8,0.9,8l-4.8,6l0.2-13L293.7,225.3z" fill="#0D8B60"/></g><g id="change3_62"><path d="M256,143.3c0.3,0.8,2.4,13.2,2.4,14.8s1.6,6,3.1,9c0.9,2,2.5,6.9,3.5,10.4c0.5,1.9,0.9,3.3,0.9,3.6 c0,0.9,2.2,11,4.4,12.9s6.5,11.3,6.5,11.3s8.3,10,8.9,10.7c0.6,0.7,5.4,9.2,5.4,9.2s-0.1-4.9-3.1-9.2s-4.1-9.3-6.3-12.2 s-2.7-7.9-4.9-9.8c-2.2-1.9-3.6-4.9-6.6-8.9c-3-4-5.7-15.7-6.4-18c-0.8-2.3-4-8.1-4.7-10.5C257.2,149.9,256,143.3,256,143.3z" fill="#0D8B60"/></g></g><g><g id="change2_4"><path d="M43.9,14.9c-3,11.2-15.1,17.3-21,27.2c-2.6,4.3-3.9,9.3-5.2,14.2C13.3,72.5,8.9,88.8,4.5,105 c-1,3.6-2,7.3-2,11.1c0,3.9,0.9,7.8,1.9,11.7c5.2,21.9,8.4,44.3,9.5,66.8c21.1-5.2,42.2-10.5,63.3-15.7c5.5-1.4,11.2-2.8,15.8-6.3 c9.5-7.1,11.4-20.5,17.8-30.5c5.3-8.2,13.6-14.1,18.8-22.4c3.7-5.8,5.6-12.6,7.2-19.3c3.4-14.4,5.3-29.1,5.7-43.9 c0.1-1.9,0.1-3.9-0.6-5.7c-1.6-4.3-6.4-6.2-10.8-7.6c-8-2.6-16.7-5-24.8-2.6c-4.6,1.3-12.6,8.9-17.1,8.2c-6.1-0.8-5.3-8.4-3.9-12.8 C72.5,27.7,57.4,21.7,43.9,14.9z" fill="#F2D9AB"/></g><g id="change3_63"><path d="M83.3,63.8c3.2-2.2,18.6-12.3,18.6-12.3l10.4-5.8c0,0,14.4,2.7,15.9,2.7c1.6,0,8.4,1.7,8.4,1.7 c-5.4,2.8-14.1,2-14.1,2s-6.2-1.3-9.7-1.1c-3.4,0.3-5.3,1.2-7.8,2.1s-7.2,4.3-9.1,4.6C94,58,83.3,63.8,83.3,63.8z" fill="#0D8B60"/></g><g id="change3_64"><path d="M77.2,71.9c0.9,0,14.7-3,14.7-3s14.4-3.6,16.6-4.8c2.2-1.2,13.5-2.3,13.5-2.3l7.5,1 c4,3.5,6.7,11.3,6.7,11.3L127,74l-11.9-2c0,0-9.7-2-11.2-2c-1.6,0-9.4,1.8-9.4,1.8L77.3,70L77.2,71.9z" fill="#0D8B60"/></g><g id="change3_65"><path d="M79.3,83.1c0.6-0.2,12.5,1.4,14.4,0.2c2.8-1.8,17.9-3.2,17.9-3.2l10.9,1.1l4.3,7.2l-7.9,6.8l-9.3-6.4 c0,0-13.7-3-17.2-3.6c-3.4-0.7-12.5-2.2-12.5-2.2L79.3,83.1z" fill="#0D8B60"/></g><g id="change3_66"><path d="M79.2,92.8c2.5,0,26.2,2.2,26.2,2.2l19,2.7c1.2,2.5-1.6,5.3-1.6,5.3s-7.5-0.4-10.3-1.7 C109.8,100.1,79.2,92.8,79.2,92.8z" fill="#0D8B60"/></g><g id="change3_67"><path d="M72.8,54.4c0,0-1.8-9.9-2.8-11.5s-1.2-6.9-2.4-8.2c-1.2-1.3-7.8-4.5-9.3-5.4c-1.6-1-9-7.7-10.2-7.9 c-6.6-1.1-9.1,5.8-9.1,5.8l10.3,4.5c5.3,2.6,11.8,8.6,11.8,8.6l6.5,6.3L72.8,54.4z" fill="#0D8B60"/></g><g id="change3_68"><path d="M65.5,61.1L59,52.2c0,0-4.3-3.2-6.2-3.8c-7.2-2.3-10.6-3.6-10.6-3.6l-4.9-7.2l-9.8,7.1 c-0.7,4.1,7.1,9.2,9.3,9.3c2.2,0.2,13.1,0.2,13.1,0.2l5.8,3.7L65.5,61.1z" fill="#0D8B60"/></g><g id="change3_69"><path d="M59.2,65.7l-12.8-0.8c0,0-9-5.1-10.6-5.4c-1.6-0.3-8.5-1-8.5-1c-2.5,1.5-5,4.6-5,4.6 c-1.6,4.7-1.6,4.7-1.6,4.7l14.7,0.5L46.3,69l14.4,1.4C65.3,73.3,59.2,65.7,59.2,65.7z" fill="#0D8B60"/></g><g id="change3_70"><path d="M65.3,75.8c0,0-16.9,1-19.1-0.2c-2.2-1.3-19.1-0.2-19.1-0.2l-5.3-0.6L18.7,79c-0.3,2.8,12.5,0.1,12.5,0.1 l13.8-2l10.5,0.1L65.3,75.8z" fill="#0D8B60"/></g><g id="change3_71"><path d="M56.8,84.8c0,0-15.9-1.8-18.4-2.1s-16.6,1.7-16.6,1.7l-9.1,2.1l-0.7,7.5l8.5-1.8l9.4-3.8l12.1-1.6 L56.8,84.8z" fill="#0D8B60"/></g><g id="change3_72"><path d="M75.1,94.7c0.9,0,7.7,6.3,9.6,7.9c1.9,1.6,9.9,10.2,10.8,9.7c0.9-0.5,12.2,0.1,12.2,0.1l5.6,0.1l-2,10.4 l-9.6-4.2l-10-2l-7.4-11.4C79.1,98.8,75.1,94.7,75.1,94.7z" fill="#0D8B60"/></g><g id="change3_73"><path d="M75,105.6l10.8,14.2l6.8,8.2c0,0,9.4,3.2,9,5.6s-1.7,10.1-1.7,10.1l-0.1,6.8c-3.2,4.1-3.7-1.5-3.7-1.5 s-4-8.2-4-9.4c0-1.3-4-9.1-4-9.1s-4-10.1-4.3-10.7s-5.5-4.4-4.9-6.3S75,105.6,75,105.6z" fill="#0D8B60"/></g><g id="change3_74"><path d="M72.1,115c0,0,1,2.5,2.3,5.3c1.3,2.8,3,5.7,4.4,6.7c2.8,1.9,5.8,9.3,5.8,9.3L84.2,147c0,0,2.1,7.3,2.4,8.7 s-0.1,6.8-0.1,6.8c-5.4,3.6-7.4,3.6-7.4,3.6s-0.6-13.7-0.5-15.8c0-2.1,0.9-11.6,0.9-11.6s-0.4-5.5-0.6-7.7 C78.4,128.8,72.1,115,72.1,115z" fill="#0D8B60"/></g><g id="change3_75"><path d="M68.5,122.4c0,0-0.9,5.6-1.2,10.8c-0.2,4.1-0.2,7.9,0.9,8.6c2.5,1.6,3.4,9.9,3.4,9.9l-2.1,10.5l-3.8,7.4 c-1.9,4.4-7.2,4-7.2,4l9-20.3l0.7-6.5l-2.6-25.7L68.5,122.4z" fill="#0D8B60"/></g><g id="change3_76"><path d="M58.9,138.4l-0.3,1.9l-2.8,20.1L50,180l-5.1,3.2c-3.4-0.7,2.6-8.4,2.9-9.7s3.5-10,3.5-10s1.1-6.8,1.4-8.2 C53.1,153.8,58.9,138.4,58.9,138.4z" fill="#0D8B60"/></g><g id="change3_77"><path d="M56.7,90.1c0,0-9.8,4.3-10.7,4.3c-0.9,0-11.7,2.8-11.7,2.8l-18.3,2.1c-4.7,1.2-4.1,6.8-4.1,6.8 c-3.5,4.3,3.3,8.2,3.3,8.2l5.1-6.4l10.7-3.2l10.3-2.6l11-3.3L56.7,90.1z" fill="#0D8B60"/></g><g id="change3_78"><path d="M52,106.9l-4.7,0.9L28,111.5l-7.9,4.7l-9.5,7.3l0.9,9c0.3,2.7,13.5-4.4,13.5-4.4l1.6-7.4 C31.7,117.6,52,106.9,52,106.9z" fill="#0D8B60"/></g><g id="change3_79"><path d="M47.6,120.2c-0.9,0.1-16.4,8-16.4,8l-6.6,7.8l-4.8,6.8l-5.7,3.4l-0.1,8.7c0.3,3.9,5.7-3.7,5.7-3.7l6.6-6.9 c0,0,2.2-3.8,4.7-5.3s5.4-6,5.4-6l4.4-6.4L47.6,120.2z" fill="#0D8B60"/></g><g id="change3_80"><path d="M49,133.6c0,0-2,2.2-4.4,4.6c-2.8,2.9-6.1,6-7,6.2C36,144.6,26.2,155,26.2,155l-8.5,6.7l-0.1,11.5 c-1.3,3.7-0.1,6.5-0.1,6.5l6.7-12.8c0,0,3.2-6,4.8-7.6s7.8-5.5,8.5-6.3c5.7-6.1,11.5-21.3,11.5-21.3L49,133.6z" fill="#0D8B60"/></g><g id="change3_81"><path d="M45.3,149.9L35.5,164c0,0-2.2,4-2.1,5.3s-6.6,6.2-7.5,6.8l-5.4,9l-1.3,5.3l6.6-1.8l6.3-5.6 c4.4-4.6,6.1-16.5,6.8-17.4c0.6-0.9,3.8-4.9,3.8-4.9L45.3,149.9z" fill="#0D8B60"/></g><g id="change3_82"><path d="M77.5,54.5c0,0-2.3,2.9-4.9,6.5c-3.2,4.5-6.8,10.2-6.4,12.3c0.7,3.8,0.3,11.3-1,13.8s-5.8,15.3-5.8,15.3 s-2.5,2.5-2.9,6.1c-0.4,3.6-4.6,13.9-4.6,13.9s0.8,4.9-0.1,6.2c-0.9,1.3-0.9,1.3-0.9,1.3l2.6-7.2c0,0,2.4-6.8,2.9-7.8 c6.1-13.1,7.4-16.2,8.7-20.2c1.3-4.1-0.3-4,0.9-5.8c3.9-6,4.6-7.5,4.9-10.7c0.4-3.2,0.1-4.7,0.4-6.9c0.3-2.2,1.1-4.4,1.4-6.1 c0.3-1.7,2.4-7.6,2.4-7.6" fill="#0D8B60"/></g></g><g><g id="change2_2"><path d="M211.5,39.7c-5.2,4.6-10.4,9.1-15.7,13.7c-1.6,1.4-3.3,3-3.9,5.1c-0.5,1.8-0.1,3.8,0.3,5.7 c0.9,4,1.7,7.9,2.6,11.9c0.5,2.1,0.9,4.2,2.2,5.9c1.6,2.1,4.1,3.2,6.5,4.3c8,3.5,16.1,6.9,24.1,10.4c2.6,1.1,5.3,2.3,8.2,2.4 c2.4,0.1,4.9-0.5,7.2-1.1c10.6-2.9,21.1-6.7,32-7.9c5.8-0.7,11.7-0.6,17.5-1c7.1-0.4,14.2-1.5,21.2-3.1c0.5-0.1,1.1-0.3,1.3-0.7 c0.2-0.4,0.1-1,0-1.4c-2.9-11.1-6.2-22.1-9.9-32.9c-2.2-6.3-4.5-12.5-8.2-18.1c-2.9-4.3-6.5-8-10.2-11.7 c-8.6-8.5-18.1-16.8-29.9-19.7c-7.6-1.9-15.7-1.4-23.5-0.9c-1.9,0.1-3.8,0.3-5.3,1.4c-1,0.8-1.7,2-2.4,3.1 c-2.7,4.9-5.5,10-6.3,15.6c-0.5,3.6,2.7,10.5,1.8,13.3C220.3,36.9,214,37.5,211.5,39.7z" fill="#F2D9AB"/></g><g id="change3_21"><path d="M226.1 47.8L218.2 45.9 196.2 62 219.2 50.4z" fill="#0D8B60"/></g><g id="change3_22"><path d="M229.4 56.9L212.6 59.5 199.1 65.4 198.5 74.7 204.3 78.6 211.7 68.1z" fill="#0D8B60"/></g><g id="change3_23"><path d="M234.7,63.1L220,70c0,0-11,11.6-10.4,11.9c0.6,0.3,9.4,1.8,9.4,1.8l13.9-16.9l11-4.5L234.7,63.1z" fill="#0D8B60"/></g><g id="change3_24"><path d="M247.9,66.9l-20.4,14.7l-4,6.4c5.8,2,10.2,3.6,10.2,3.6s4.5-3.9,5.1-5.6c0.6-1.7,5.6-12.2,5.3-12 S247.9,66.9,247.9,66.9z" fill="#0D8B60"/></g><g id="change3_25"><path d="M255.2,57.7l-6.9,21.2l0.1,7.8c0,0,5.8,2,5.2,1.3c-0.6-0.7-2.3-5.5-2.3-5.5 C252.9,74.6,255.2,57.7,255.2,57.7z" fill="#0D8B60"/></g><g id="change3_26"><path d="M262.6,60.9l-6.2,15.7l2.9,6.7c4.4,1.8,9.2,3.5,9.2,3.5l-5.6-12.5l0.8-6.9L262.6,60.9z" fill="#0D8B60"/></g><g id="change3_27"><path d="M271.7,68.6l1,14.6c1.8,2.6,9.3,0.2,9.3,0.2s-5.9-5.9-5.9-6.8c0-0.9-1-8.8-1-8.8l-3.9-4.5L271.7,68.6z" fill="#0D8B60"/></g><g id="change3_28"><path d="M281.1,69.5l0.6,1.8l4.2,12c3.9,0.7,6.9-0.2,6.9-0.2l-5.9-6.8l-6.7-11.1L281.1,69.5z" fill="#0D8B60"/></g><g id="change3_29"><path d="M291.4,69.9l1.3,9.6l4,6.5C301.3,83.3,291.4,69.9,291.4,69.9z" fill="#0D8B60"/></g><g id="change3_30"><path d="M299.4 73.4L302.8 83.2 305.7 83.6z" fill="#0D8B60"/></g><path d="M232.8,35.3c-0.1-0.9-0.2-1.9-0.3-2.8" fill="none"/><g id="change3_31"><path d="M232.1,29.1c0,0-6.5-11.4-5.9-11.9c0.5-0.5,4.4-9.7,4.4-9.7s2.6-4,3.4-4.2c4.3-0.9,4.3-0.9,4.3-0.9 l-4.2,9.2l-4.6,6.1L232.1,29.1z" fill="#0D8B60"/></g><g id="change3_32"><path d="M236.3 35.7L236.2 33.3 235.6 19.2 239.9 10.2 243.3 2.7 253.1 3.2 248.6 11.6z" fill="#0D8B60"/></g><g id="change3_33"><path d="M245.8,33.9c-0.1-2.3-1.3-12.1-0.6-12.4c0.7-0.3,8.4-10.1,8.7-11.2s4.8-4.1,4.8-4.1s-3.9,8.4-4.7,9.3 c-0.7,0.9-5.2,7.3-5.2,7.3s2.7,3.8,1.9,5.2C249.9,29.2,245.8,33.9,245.8,33.9z" fill="#0D8B60"/></g><g id="change3_34"><path d="M251.6 37.7L252.5 35.9 262.9 14.6 270.2 9.7 265.2 24 258.6 29.1z" fill="#0D8B60"/></g><g id="change3_35"><path d="M256.4,40.4c0.2-0.8,5.9-8.2,6.7-9.2s5.8-5.9,6.5-6.5c0.7-0.6,6.6-8.1,6.6-8.1l5.3,2.2 c0,0-11.3,9.5-11.7,10.1c-0.4,0.6-4.6,9.6-5.6,9.5S256.4,40.4,256.4,40.4z" fill="#0D8B60"/></g><g id="change3_36"><path d="M259.2,46.5l11.6-7.7l12.4-10.7l7.3-3.2c0,0,1.5,7.3,2.2,7c0.6-0.4-5.8,3.3-5.8,3.3l-14.4,7 c0,0-5.5,2.8-6.8,3C264.5,45.4,259.2,46.5,259.2,46.5z" fill="#0D8B60"/></g><g id="change3_37"><path d="M269.8,48.6c0.1-0.1,0.4-0.3,0.9-0.6C275,45.4,291.4,36,291.4,36l2.8,5.1c-1.6,3.5-4.2,2.3-6,2.7 c-1.8,0.4-9.6,3.3-9.6,3.3L269.8,48.6z" fill="#0D8B60"/></g><g id="change3_38"><path d="M271.1,54.6c0.7-0.3,10.3-4.2,10.3-4.2s7.1-2.5,8-1.5s6.2,0,6.2,0c2.7-0.8,4,4.6,4,4.6s-3.8,1-6.4,0.5 s-11.6-1.3-11.6-1.3L271.1,54.6z" fill="#0D8B60"/></g><g id="change3_39"><path d="M276.9,56.8c1.1-0.4,17.2-0.4,17.2-0.4l7.6,1.7c0,0,0.8,4.1,0.5,4.9S276.9,56.8,276.9,56.8z" fill="#0D8B60"/></g><g id="change3_40"><path d="M288.2,63.3c1.1-0.3,10.5,1.1,11.9,1.5c1.3,0.4,4.5,4,4.5,4l0.3,5.8l-6.4-7.4L288.2,63.3z" fill="#0D8B60"/></g><g id="change3_41"><path d="M226.3,36c0.6,0.3,7.9,6.2,8.7,7.1s3.9,2.5,6.2,3.5c1.5,0.6,4.9,2.6,7.2,4.1c1.2,0.8,2.1,1.4,2.3,1.6 c0.5,0.5,6.7,5.1,8.9,5c2.2-0.1,9.3,3.1,9.3,3.1s9.6,1.5,10.3,1.6c0.7,0.1,7.6,2.5,7.6,2.5s-2.5-2.7-6.3-3.6 c-3.8-1-6.9-3.2-9.6-3.7c-2.6-0.5-5.4-3.1-7.6-3c-2.2,0-4.5-1-8.1-1.8c-3.7-0.8-11-6-12.5-6.9c-1.6-0.9-6.3-2.6-7.9-3.5 C230.3,39.1,226.3,36,226.3,36z" fill="#0D8B60"/></g></g><g><g id="change2_1"><path d="M166,196.1c-2.7,7,1.2,14.9,0.5,22.4c-0.3,3.3-1.5,6.4-2.7,9.5c-4,10.2-8,20.4-12,30.6 c-0.9,2.3-1.8,4.6-3.2,6.6c-1.5,2.1-3.5,3.7-5.5,5.4c-11.2,9.5-21.6,20-30.8,31.4c-9-10.9-18.1-21.8-27.1-32.7 c-2.4-2.9-4.8-5.8-5.9-9.4c-2.2-7.4,1.9-15.1,2.5-22.9c0.4-6.4-1.7-12.7-1.2-19c0.3-4.5,1.9-8.8,3.7-12.9c3.8-8.8,8.5-17.3,14-25.2 c0.7-1,1.5-2.1,2.5-2.8c2.5-1.6,5.8-0.8,8.6,0.2c5.2,1.7,10.7,3.8,14,8.2c1.9,2.5,3.2,9.5,5.8,10.9c3.5,1.9,6.1-2.4,7-5.2 C146,191.8,156.2,194.5,166,196.1z" fill="#F2D9AB"/></g><g id="change3_1"><path d="M126.3,206.6c-0.8-2.3-5-13.6-5-13.6l-3.2-7.1c0,0-8.6-4.2-9.4-4.7s-5.1-2.4-5.1-2.4 c1.7,3.5,6.6,6.5,6.6,6.5s3.8,1.7,5.5,3.2s2.3,2.7,3.3,4.1s2.1,5.1,3,5.9S126.3,206.6,126.3,206.6z" fill="#0D8B60"/></g><g id="change3_2"><path d="M126.4,213.1c-0.5-0.4-6.6-7.2-6.6-7.2s-6.2-7.5-6.9-9s-6.2-6.4-6.2-6.4l-4.3-2.4c-3.5,0.3-7.9,3.3-7.9,3.3 l5,3.6l7,3.5c0,0,5.8,2.7,6.7,3.3s4.3,4.6,4.3,4.6l9.7,5.7L126.4,213.1z" fill="#0D8B60"/></g><g id="change3_3"><path d="M121,218.2c-0.2-0.3-7.1-4.1-7.6-5.5c-0.8-2.1-8.1-8.6-8.1-8.6l-6.2-3.7l-5.1,2.1l1.5,6.6l7.3,0.3 c0,0,8.4,3.7,10.4,4.7c2.1,1,7.4,3.7,7.4,3.7L121,218.2z" fill="#0D8B60"/></g><g id="change3_4"><path d="M117.3,223.4c-1.3-1-14.6-9-14.6-9l-11.1-5.9c-1.6,0.8-1.2,3.4-1.2,3.4s4.1,2.7,6.1,3.1 S117.3,223.4,117.3,223.4z" fill="#0D8B60"/></g><g id="change3_5"><path d="M135.5,205.7c0,0,4.8-4.5,5.9-4.9c1.1-0.5,3.3-3.2,4.4-3.4c1.1-0.2,5.8,0.7,7,0.8c1.2,0.1,7.7-0.6,8.4-0.2 c3.9,2,2.5,6.6,2.5,6.6l-7.1-1.6c-3.8-0.7-9.5-0.1-9.5-0.1l-5.9,0.8L135.5,205.7z" fill="#0D8B60"/></g><g id="change3_6"><path d="M136.7,212l6.8-2.1c0,0,3.5,0,4.7,0.4c4.6,1.6,6.9,2.2,6.9,2.2l5.4-1.9l2.4,7.5c-1.2,2.4-7.3,2.1-8.5,1.3 c-1.2-0.8-7-5-7-5l-4.5-0.3L136.7,212z" fill="#0D8B60"/></g><g id="change3_7"><path d="M138.3,216.9l7,4.6c0,0,6.7,0.8,7.6,1.2c0.9,0.4,4.8,2.7,4.8,2.7c0.7,1.8,0.8,4.4,0.8,4.4 c-1,3.1-1,3.1-1,3.1l-7.9-5.4l-6-3.8l-8.1-4.8C132.1,218.5,138.3,216.9,138.3,216.9z" fill="#0D8B60"/></g><g id="change3_8"><path d="M131.1,219.8c0,0,8.5,7.1,10.1,7.3s10.1,7.3,10.1,7.3l3,1.7l0,3.5c-0.9,1.6-6.6-4.8-6.6-4.8l-6.5-6.4 l-5.6-4L131.1,219.8z" fill="#0D8B60"/></g><g id="change3_9"><path d="M132.2,227.8c0,0,9,5.2,10.5,6c1.4,0.8,8.1,7.3,8.1,7.3l4,4.6l-2.5,4.2l-3.8-4.2l-3.5-5.6l-5.7-5.5 L132.2,227.8z" fill="#0D8B60"/></g><g id="change3_10"><path d="M118.7,225.9c-0.5-0.4-6.5,0.3-8.1,0.4c-1.6,0.1-9.2,1.6-9.4,0.9c-0.3-0.6-6.5-4.6-6.5-4.6l-3-2.1l-3,6.2 l6.7,1.5l6,2.8l8.3-3.1C115,226.5,118.7,225.9,118.7,225.9z" fill="#0D8B60"/></g><g id="change3_11"><path d="M114.5,231.7l-11.1,3.3l-6.7,1.7c0,0-6.2-1.9-6.9-0.6c-0.7,1.4-3,6-3,6l-2.6,3.6c0.1,3.4,2.5,0.7,2.5,0.7 s5.2-2.8,5.7-3.4s5.6-3.3,5.6-3.3s6-3.7,6.4-4s4.6-0.2,5-1.4C109.9,233.1,114.5,231.7,114.5,231.7z" fill="#0D8B60"/></g><g id="change3_12"><path d="M112.4,237.7c0,0-1.5,0.9-3.2,1.9c-1.8,0.9-3.8,1.9-4.9,1.8c-2.2-0.1-6.7,2.6-6.7,2.6l-3.9,5.8 c0,0-3.9,3-4.6,3.6c-0.7,0.6-2.6,3.6-2.6,3.6c1.4,4,2.5,4.7,2.5,4.7s5.6-7,6.4-8.1c0.8-1.1,4-6.4,4-6.4s2.3-2.8,3.3-3.8 C103.7,242.5,112.4,237.7,112.4,237.7z" fill="#0D8B60"/></g><g id="change3_13"><path d="M111.4,243c0,0-1.7,3.3-3.6,6.1c-1.4,2.2-3,4.2-3.8,4.2c-1.9-0.1-5.6,3.9-5.6,3.9l-3,6.3l-0.8,5.3 c-0.7,3,2.3,4.9,2.3,4.9l3.1-14.1l2.1-3.7l11.3-12.5L111.4,243z" fill="#0D8B60"/></g><g id="change3_14"><path d="M110.3,255.1l-0.6,1.1l-6.3,11.7l-4.5,12.5l1.4,3.6c2,1,1.9-5.4,2.2-6.2c0.3-0.8,2-6.6,2-6.6s2-4,2.4-4.9 C107.3,265.5,110.3,255.1,110.3,255.1z" fill="#0D8B60"/></g><g id="change3_15"><path d="M130.1,230.6c0,0,3.5,6,4,6.4c0.5,0.4,5.1,6,5.1,6l8.8,8.2c2,2.4-0.5,5.2-0.5,5.2c0.2,3.6-4.9,3-4.9,3 l-0.2-5.3l-4.4-5.8l-4.4-5.4l-4.5-6L130.1,230.6z" fill="#0D8B60"/></g><g id="change3_16"><path d="M126.1,241.3l2.1,2.3l8.7,9.4l2.3,5.5l2.1,7.5l-3.9,4.4c-1.2,1.3-5.4-7.5-5.4-7.5l2-4.5 C132.6,254.8,126.1,241.3,126.1,241.3z" fill="#0D8B60"/></g><g id="change3_17"><path d="M123.3,250c0.5,0.4,5.5,10.5,5.5,10.5l0.5,6.6l-0.1,5.4l1.7,4l-3.3,4.6c-1.6,1.9-1.5-4.1-1.5-4.1l-0.8-6.2 c0,0,0.3-2.8-0.4-4.6c-0.8-1.8-0.5-5.3-0.5-5.3l0.2-5L123.3,250z" fill="#0D8B60"/></g><g id="change3_18"><path d="M117.4,256.4c0,0,0.2,1.9,0.5,4.1c0.4,2.6,0.9,5.5,1.3,5.9c0.7,0.7,1.9,10,1.9,10l1.9,6.8l-4.4,6.1 c-0.8,2.5-2.5,3.4-2.5,3.4l1.4-9.3c0,0,0.6-4.4,0.4-5.8c-0.2-1.4-2-5.9-2-6.6c-0.6-5.4,2.2-15.7,2.2-15.7L117.4,256.4z" fill="#0D8B60"/></g><g id="change3_19"><path d="M113,266.4l-0.3,11.2c0,0-0.4,3-0.9,3.6s1.1,5.8,1.3,6.5l-0.6,6.8l-1.4,3.3l-2.7-3.5l-1.2-5.4 c-0.5-4.2,3.2-11,3.2-11.8s-0.1-4-0.1-4L113,266.4z" fill="#0D8B60"/></g><g id="change3_20"><path d="M133,203.9c0,0,0.1,2.4,0,5.3c-0.1,3.6-0.4,8-1.4,8.9c-1.8,1.7-4.5,5.8-4.8,7.6S124,236,124,236 s0.4,2.3-0.8,4.3c-1.2,2-2.9,9.1-2.9,9.1s-2.3,2.3-2.4,3.3s0,1,0,1l1.4-4.8c0,0,1.3-4.5,1.5-5.2c1.9-9.2,2.4-11.3,3.3-14 c0.9-2.6,1.7-2,1.8-3.4c0.3-4.7,0.5-5.7,1.5-7.5c1-1.8,1.8-2.5,2.5-3.8s1.1-2.7,1.6-3.7c0.5-1,1.7-4.9,1.7-4.9" fill="#0D8B60"/></g></g></svg>